<?xml version="1.0" standalone="no"?>
<!DOCTYPE svg PUBLIC "-//W3C//DTD SVG 20010904//EN"
 "http://www.w3.org/TR/2001/REC-SVG-20010904/DTD/svg10.dtd">
<svg version="1.0" xmlns="http://www.w3.org/2000/svg"
 width="736.000000pt" height="736.000000pt" viewBox="0 0 736.000000 736.000000"
 preserveAspectRatio="xMidYMid meet">
<metadata>
Created by potrace 1.15, written by Peter Selinger 2001-2017
</metadata>
<g transform="translate(0.000000,736.000000) scale(0.100000,-0.100000)"
fill="#4CB648" stroke="none">
<path d="M3515 7194 c-615 -38 -1160 -204 -1654 -503 -1177 -714 -1828 -2033
-1675 -3391 67 -589 277 -1145 618 -1630 374 -532 897 -953 1510 -1215 487
-207 1081 -305 1602 -265 677 53 1301 280 1832 667 759 554 1266 1393 1401
2318 68 463 43 936 -73 1385 -51 197 -83 295 -149 456 -124 301 -304 606 -513
869 -114 143 -399 427 -539 539 -527 419 -1142 673 -1815 750 -137 16 -436 27
-545 20z m184 -291 c-8 -9 -65 -40 -128 -70 -62 -29 -150 -80 -195 -112 -157
-113 -236 -161 -350 -217 -105 -51 -125 -65 -204 -146 -102 -105 -245 -222
-296 -243 -20 -9 -72 -27 -116 -41 -55 -17 -105 -43 -158 -80 -42 -30 -102
-71 -132 -90 -30 -20 -85 -57 -122 -83 -101 -69 -137 -89 -205 -111 -33 -12
-81 -34 -105 -49 -213 -137 -291 -193 -340 -241 -45 -43 -58 -52 -58 -37 0 11
18 39 40 63 47 51 59 88 39 123 -38 68 -83 16 -85 -98 -2 -71 -4 -77 -33 -103
-31 -27 -34 -28 -154 -28 -119 0 -124 1 -147 25 l-24 25 66 98 c81 118 207
279 289 367 l61 65 22 -33 c18 -26 29 -33 63 -35 41 -3 42 -2 53 37 14 55 67
121 118 149 34 19 42 29 42 53 0 16 -9 38 -22 51 -18 18 -19 23 -6 32 8 6 48
37 89 69 42 31 78 57 81 57 4 0 8 -10 10 -22 4 -29 34 -34 81 -14 46 19 72 59
71 109 -1 37 1 41 60 78 98 64 410 213 557 268 322 120 718 193 1073 200 72 1
77 0 65 -16z m375 -13 c386 -49 688 -140 1031 -309 246 -122 443 -249 646
-419 l77 -63 -10 -36 c-5 -19 -6 -39 -1 -44 4 -4 33 -9 63 -11 43 -2 56 -7 58
-20 2 -12 -6 -21 -22 -28 -43 -16 -30 -29 32 -32 56 -3 57 -3 60 -35 3 -32 2
-33 -35 -33 -64 0 -83 -9 -83 -39 0 -79 48 -162 105 -182 l35 -13 0 -113 0
-113 30 0 c42 0 51 29 33 100 -23 91 -26 137 -13 170 16 40 56 41 92 3 33 -34
43 -62 52 -136 11 -82 52 -127 152 -164 60 -22 79 -35 94 -61 11 -18 20 -37
20 -41 0 -8 -40 -3 -167 22 -40 8 -75 12 -78 9 -3 -3 -5 -15 -5 -28 0 -37 -25
-35 -66 7 -26 26 -47 39 -65 39 l-27 0 5 -84 c6 -84 5 -85 -24 -113 -16 -15
-43 -35 -60 -45 -45 -24 -65 -60 -70 -131 -7 -79 10 -161 41 -202 32 -42 82
-55 209 -55 101 0 106 -1 125 -25 11 -14 22 -48 26 -80 3 -30 9 -80 12 -110 5
-43 10 -55 23 -55 27 0 59 -37 68 -77 14 -65 6 -221 -12 -239 -18 -18 -20 -55
-3 -72 7 -7 25 -12 42 -12 l29 0 -6 -197 c-6 -159 -4 -217 9 -293 10 -55 17
-160 18 -250 1 -144 3 -159 28 -215 35 -80 65 -239 78 -410 6 -77 13 -168 17
-203 7 -75 -6 -81 -34 -14 -11 26 -44 78 -72 116 -57 76 -63 107 -27 124 30
13 61 90 52 127 -4 15 -20 34 -37 43 -57 32 -60 36 -63 88 -5 100 -59 161
-106 119 -19 -17 -40 -86 -40 -129 0 -22 -5 -26 -30 -26 -40 0 -53 -28 -48
-101 l4 -59 -36 0 c-55 0 -99 -19 -115 -50 -8 -15 -21 -68 -30 -117 -14 -73
-15 -97 -5 -134 30 -113 223 -215 415 -221 39 -1 73 -3 78 -5 16 -9 -161 -299
-273 -448 -454 -604 -1083 -1024 -1803 -1204 l-166 -42 -63 51 c-134 108 -238
122 -238 32 0 -16 9 -21 50 -27 39 -5 51 -11 56 -28 3 -12 13 -29 21 -38 15
-18 13 -19 -217 -39 -350 -31 -801 18 -1161 125 -290 87 -597 231 -851 398
l-78 52 0 69 c0 124 -53 192 -168 217 -39 8 -70 8 -115 0 l-62 -11 -42 43 -43
42 27 40 c14 22 56 81 93 131 78 104 105 154 149 279 18 50 73 169 122 265 49
96 127 252 173 346 47 94 92 174 101 178 10 3 30 -3 48 -16 38 -28 97 -29 145
-4 53 27 72 81 72 204 0 56 4 102 9 102 5 0 16 -21 25 -47 14 -40 16 -107 16
-445 0 -452 -5 -421 91 -631 152 -331 385 -697 532 -834 96 -90 125 -93 194
-24 l40 40 6 557 c12 953 4 1970 -15 1989 -12 12 -89 25 -326 56 -265 33 -319
44 -331 68 -36 66 -50 455 -19 524 l17 37 68 0 c205 0 778 -157 856 -234 23
-24 22 -66 -9 -213 -28 -138 -88 -334 -141 -462 -21 -53 -32 -93 -29 -107 4
-16 58 -59 169 -134 89 -61 188 -129 219 -151 l57 -41 113 102 c62 56 145 127
185 159 65 50 72 60 72 91 1 69 -30 222 -65 323 -46 133 -103 343 -104 384 0
28 6 35 38 52 91 46 553 176 766 216 106 20 111 17 132 -71 18 -77 39 -340 30
-386 -6 -33 -12 -38 -54 -52 -26 -8 -103 -27 -172 -41 -228 -49 -401 -93 -427
-110 l-26 -17 6 -467 c4 -256 11 -551 17 -656 5 -104 14 -282 20 -395 19 -375
72 -1025 84 -1037 14 -14 83 -30 100 -23 37 13 418 625 535 859 34 66 73 156
87 198 27 78 27 78 20 303 -6 209 -27 569 -42 715 l-6 62 70 57 c43 35 75 69
81 88 7 20 11 157 11 386 0 343 1 355 18 339 10 -10 23 -17 29 -17 28 0 44
130 22 172 -8 15 -17 19 -39 15 l-28 -6 -6 69 c-4 39 -4 74 -1 80 3 5 22 10
41 10 31 0 34 2 34 30 0 17 -7 42 -16 56 -16 23 -18 24 -35 8 -11 -10 -21 -15
-23 -13 -2 2 -7 67 -10 144 -8 149 -22 334 -32 400 -18 120 -81 320 -135 427
-65 130 -190 288 -296 378 -44 37 -53 50 -53 77 0 27 -6 37 -32 53 -17 10 -49
22 -70 25 -72 12 -38 65 43 65 l29 0 0 90 c0 105 -8 125 -74 190 -30 28 -48
56 -52 78 -12 63 -105 70 -188 13 -78 -54 -146 -81 -204 -81 -63 0 -94 12
-188 73 -88 57 -119 93 -128 145 -12 75 -47 88 -138 51 -38 -16 -76 -22 -133
-23 l-80 -1 -6 -90 c-3 -49 -11 -100 -17 -112 -19 -34 -338 -250 -351 -237 -3
2 -7 17 -9 32 -9 71 -92 154 -168 168 -19 3 -34 9 -34 13 0 4 42 34 93 66 117
75 249 172 407 300 183 147 189 151 331 215 72 33 141 66 153 74 27 19 19 19
200 -4z m-1397 -868 c-6 -55 -36 -86 -100 -103 -76 -20 -84 -26 -99 -71 -12
-34 -20 -44 -41 -46 -40 -5 -87 -54 -87 -90 0 -32 22 -62 46 -62 8 0 23 9 34
20 34 34 58 26 83 -27 15 -33 29 -49 45 -51 12 -2 22 -6 22 -9 0 -2 -29 -41
-65 -86 -107 -134 -191 -290 -235 -438 -50 -167 -51 -180 -50 -894 0 -368 3
-750 6 -847 l7 -178 -36 0 c-67 0 -80 -12 -129 -113 -25 -52 -49 -108 -52
-124 -4 -17 -29 -66 -57 -109 -34 -54 -61 -115 -85 -194 -41 -129 -54 -159
-129 -280 -29 -47 -86 -155 -128 -240 -58 -119 -92 -175 -147 -240 -81 -97
-122 -164 -160 -262 l-27 -69 -39 43 c-170 185 -383 504 -496 746 -269 573
-367 1188 -288 1797 21 163 65 383 80 399 13 13 70 -26 77 -53 3 -13 -2 -45
-11 -70 -23 -66 -22 -71 23 -71 37 0 40 2 43 33 4 47 40 47 138 1 75 -35 81
-36 103 -21 14 9 39 48 57 91 35 79 46 91 52 55 2 -17 14 -5 51 53 56 90 59
118 17 206 -17 35 -30 76 -30 92 0 40 57 120 185 259 104 114 113 121 155 126
103 13 115 18 118 52 2 24 10 34 33 43 23 10 40 32 70 92 46 92 71 113 239
198 276 139 412 222 532 323 35 30 108 87 163 126 111 81 122 80 112 -7z
m4166 -1694 c49 -245 61 -373 60 -643 0 -199 -4 -282 -22 -410 -19 -140 -83
-454 -98 -479 -16 -26 -27 49 -34 243 -5 119 -11 225 -15 236 -3 11 -9 101
-13 200 -5 99 -15 225 -24 280 -56 345 -69 448 -62 493 8 55 29 109 53 136 21
24 102 76 118 76 6 0 22 -54 37 -132z"/>
<path d="M5229 5479 c-12 -23 -12 -101 1 -133 7 -20 17 -26 39 -26 42 0 61 23
61 75 0 69 -13 92 -55 97 -27 3 -39 0 -46 -13z"/>
<path d="M5524 4802 c-22 -14 -34 -51 -34 -102 0 -41 5 -56 25 -75 54 -55 116
-13 123 84 4 57 4 58 -31 80 -35 22 -64 26 -83 13z"/>
<path d="M6131 4508 c-50 -27 -54 -78 -7 -78 21 0 25 -6 32 -47 l9 -48 89 -3
c49 -2 93 1 99 7 6 6 -1 39 -19 90 l-29 81 -40 0 c-22 0 -56 3 -75 5 -20 3
-46 0 -59 -7z"/>
<path d="M5942 4188 c-23 -23 -14 -77 17 -109 27 -26 36 -29 96 -29 49 0 67 4
71 15 17 44 -34 147 -61 125 -10 -8 -19 -8 -34 -1 -26 15 -74 14 -89 -1z"/>
<path d="M5738 4004 c-43 -23 -62 -112 -37 -181 9 -27 16 -31 62 -37 141 -17
179 1 192 88 7 41 4 50 -16 72 -48 51 -155 82 -201 58z"/>
<path d="M6090 3847 c-19 -9 -26 -22 -28 -49 -4 -53 20 -92 73 -118 112 -54
211 23 140 108 -41 49 -142 81 -185 59z"/>
<path d="M5804 2290 c-52 -21 -72 -101 -34 -135 16 -14 35 -19 77 -17 31 1 59
6 62 11 4 5 5 30 3 56 -4 41 -8 49 -43 71 -21 13 -40 24 -41 23 -2 0 -13 -4
-24 -9z"/>
<path d="M5589 2205 c-27 -15 -49 -60 -49 -99 0 -35 38 -86 75 -102 47 -19
154 -19 161 1 15 38 -8 88 -70 151 -34 35 -68 64 -76 64 -8 -1 -27 -7 -41 -15z"/>
<path d="M6187 2072 c-23 -25 -21 -75 2 -96 38 -34 127 -20 138 22 5 22 0 31
-32 59 -43 37 -83 43 -108 15z"/>
<path d="M1884 1911 c-51 -31 -71 -122 -38 -170 23 -32 74 -51 136 -50 95 2
102 6 111 77 9 74 -6 112 -56 142 -42 26 -112 26 -153 1z"/>
<path d="M5121 1610 c-50 -12 -64 -32 -69 -98 -3 -45 1 -70 16 -105 28 -64 63
-80 182 -85 86 -4 98 -2 123 18 23 18 27 29 27 71 0 80 -43 143 -126 187 -29
15 -113 22 -153 12z"/>
<path d="M1882 1438 c-17 -22 -24 -59 -18 -93 5 -26 13 -35 35 -40 30 -6 81 9
93 28 16 25 7 54 -25 85 -34 33 -67 41 -85 20z"/>
<path d="M2336 1128 c-20 -28 -21 -146 -2 -191 22 -52 59 -79 114 -85 l48 -4
17 52 c32 98 21 134 -65 209 -53 47 -89 53 -112 19z"/>
<path d="M2130 1055 c-6 -8 -14 -32 -17 -54 -5 -35 -2 -44 25 -71 17 -16 37
-30 46 -30 19 0 46 27 47 48 3 48 -4 89 -18 105 -19 21 -66 22 -83 2z"/>
<path d="M1841 5194 c-29 -21 -51 -72 -51 -119 0 -35 0 -35 44 -35 23 0 57 5
75 11 29 10 31 14 31 59 0 30 -5 52 -15 60 -8 7 -15 19 -15 26 0 19 -40 18
-69 -2z"/>
<path d="M1250 4967 c-37 -19 -70 -74 -70 -118 0 -33 4 -40 25 -45 56 -14 128
17 145 62 13 34 -7 82 -41 99 -33 18 -28 18 -59 2z"/>
<path d="M1617 4912 c-35 -14 -57 -63 -57 -128 0 -77 12 -89 80 -81 28 3 55 9
60 12 6 3 10 40 10 81 0 107 -28 141 -93 116z"/>
<path d="M1894 4866 c-39 -17 -71 -58 -84 -106 -10 -37 -8 -55 12 -96 23 -48
122 -60 178 -21 99 67 99 157 0 207 -55 27 -73 30 -106 16z"/>
<path d="M2048 4263 c-21 -5 -38 -61 -38 -126 0 -61 31 -97 85 -97 41 0 52 19
62 102 6 46 4 49 -38 88 -24 22 -46 39 -49 39 -3 -1 -13 -3 -22 -6z"/>
<path d="M1266 3298 c-9 -12 -16 -37 -16 -55 0 -25 9 -39 44 -68 31 -25 46
-46 50 -70 8 -43 35 -59 86 -50 47 8 55 25 45 104 -14 114 -57 161 -147 161
-37 0 -50 -5 -62 -22z"/>
<path d="M1559 3139 c-6 -12 -15 -62 -19 -110 -7 -95 -16 -114 -56 -122 -22
-4 -28 1 -41 32 -21 51 -42 71 -75 71 -26 0 -28 -3 -28 -40 0 -23 -15 -78 -32
-123 -42 -105 -43 -178 -5 -253 29 -58 92 -119 146 -141 71 -30 196 -10 220
35 15 28 14 260 -1 303 -6 19 -23 52 -37 74 -25 38 -26 45 -24 168 3 120 2
127 -17 127 -11 0 -24 -10 -31 -21z"/>
<path d="M6707 4182 c-39 -43 -37 -166 3 -222 24 -33 68 -60 99 -60 32 0 39
60 13 118 -11 26 -25 66 -31 88 -11 41 -45 94 -60 94 -4 0 -15 -8 -24 -18z"/>
</g>
</svg>
